<svg viewBox="0 0 118 21" xmlns="http://www.w3.org/2000/svg" xmlns:xlink="http://www.w3.org/1999/xlink" width="118.000000" height="21.000000" fill="none" customFrame="#000000">
	<rect id="logo text" width="118.000000" height="21.000000" x="0.000000" y="0.000000" />
	<path id="Vector" d="M1.42351 19.2159C0.391283 17.7277 -0.102273 15.9474 0.0207226 14.156L0.0207226 6.84405C-0.109487 5.03944 0.376607 3.24353 1.40346 1.73542C2.33197 0.572011 3.91845 -0.00644536 6.16291 5.41628e-05C8.40736 0.00655368 9.92704 0.516766 10.722 1.53069C11.6912 2.78717 12.1642 4.3407 12.0546 5.90812L12.0546 7.62399L7.90636 7.62399L7.90636 5.76188C7.90077 5.27192 7.85723 4.78307 7.77611 4.29949C7.72595 3.9494 7.56075 3.6245 7.30517 3.3733C7.1474 3.24166 6.96423 3.14195 6.76637 3.08001C6.56852 3.01807 6.35995 2.99515 6.15288 3.01258C5.8555 2.9694 5.55167 3.01643 5.28273 3.14726C5.0138 3.2781 4.79283 3.48638 4.6499 3.74378C4.38644 4.42844 4.27049 5.15851 4.30923 5.88862L4.30923 15.1699C4.26352 15.9049 4.39743 16.6399 4.7 17.3148C4.84457 17.5582 5.05909 17.7553 5.31721 17.8817C5.57533 18.0082 5.86578 18.0585 6.15288 18.0265C6.435 18.0653 6.72251 18.0164 6.97441 17.8869C7.22631 17.7573 7.42973 17.5537 7.55567 17.305C7.79804 16.6191 7.90347 15.8944 7.86628 15.1699L7.86628 13.2201L12.0145 13.2201L12.0145 14.9067C12.1366 16.4972 11.7023 18.0812 10.7821 19.4011C9.90032 20.4735 8.3773 21 6.21301 21C4.04871 21 2.35536 20.415 1.42351 19.2159Z" fill="rgb(17,17,17)" fill-rule="nonzero" />
	<path id="Vector" d="M17.7065 0.282776L22.4559 0.282776L26.4638 20.7563L22.516 20.7563L21.8046 16.2326L18.478 16.2326L17.6764 20.727L13.6685 20.727L17.7065 0.282776ZM21.3637 13.6588L20.1012 5.4304L18.8487 13.6588L21.3637 13.6588Z" fill="rgb(17,17,17)" fill-rule="nonzero" />
	<path id="Vector" d="M29.5405 3.36355L26.2941 3.36355L26.2941 0.282776L37.0354 0.282776L37.0354 3.36355L33.829 3.36355L33.829 20.727L29.5305 20.727L29.5405 3.36355Z" fill="rgb(17,17,17)" fill-rule="nonzero" />
	<path id="Vector" d="M45.4631 0.282776L53.6093 0.282776L53.6093 2.40812L48.399 2.40812L48.399 9.16437L52.6273 9.16437L52.6273 11.1825L48.399 11.1825L48.399 18.6797L53.6594 18.6797L53.6594 20.727L45.4631 20.727L45.4631 0.282776Z" fill="rgb(68,68,68)" fill-rule="nonzero" />
	<path id="Vector" d="M56.0247 0.282776L58.0286 0.282776L64.0406 13.8635L64.0406 0.282776L66.4854 0.282776L66.4854 20.7563L64.6117 20.7563L58.5998 6.79529L58.5998 20.727L56.1148 20.727L56.0247 0.282776Z" fill="rgb(68,68,68)" fill-rule="nonzero" />
	<path id="Vector" d="M69.7224 0.282776L77.8586 0.282776L77.8586 2.40812L72.6482 2.40812L72.6482 9.16437L76.9167 9.16437L76.9167 11.1825L72.6883 11.1825L72.6883 18.6797L77.9187 18.6797L77.9187 20.727L69.7224 20.727L69.7224 0.282776Z" fill="rgb(68,68,68)" fill-rule="nonzero" />
	<path id="Vector" d="M80.2739 0.282779L84.5023 0.282779C86.1687 0.152311 87.8281 0.605237 89.1816 1.55993C90.1836 2.40812 90.6745 3.79252 90.6745 5.71313C90.6745 8.31293 89.8095 9.90207 88.0794 10.4805L91.0854 20.727L88.2397 20.727L85.4843 11.1337L83.2097 11.1337L83.2097 20.727L80.2739 20.727L80.2739 0.282779ZM84.2819 9.05713C85.2472 9.148 86.2124 8.88364 86.9872 8.31618C87.3021 7.95359 87.5375 7.53216 87.6788 7.0778C87.8201 6.62344 87.8643 6.14576 87.8089 5.67413C87.829 5.0127 87.7307 4.3529 87.5183 3.72427C87.4321 3.49248 87.2991 3.27987 87.127 3.09901C86.9549 2.91815 86.7472 2.77273 86.5163 2.67135C85.8658 2.41169 85.1644 2.29517 84.4622 2.33013L83.1697 2.33013L83.1697 9.09613L84.2819 9.05713Z" fill="rgb(68,68,68)" fill-rule="nonzero" />
	<path id="Vector" d="M94.623 19.2159C93.6653 17.643 93.2215 15.8239 93.3505 14L93.3505 7.17552C93.316 5.85855 93.4848 4.54399 93.8515 3.27581C94.1409 2.32238 94.7559 1.49354 95.5949 0.926233C96.6079 0.332253 97.7805 0.0470228 98.9616 0.107293C99.7256 0.0365995 100.496 0.129098 101.22 0.378323C101.943 0.627548 102.602 1.02749 103.15 1.55019C104.111 2.86053 104.566 4.45937 104.432 6.0641L104.432 6.82455L101.677 6.82455L101.677 6.19084C101.696 5.4329 101.635 4.67506 101.497 3.92901C101.405 3.45088 101.134 3.02319 100.735 2.72985C100.215 2.43117 99.6144 2.29188 99.0117 2.33013C98.3572 2.27565 97.7067 2.47149 97.1981 2.87609C96.7826 3.25974 96.511 3.76769 96.4266 4.31898C96.2997 5.12206 96.2427 5.93414 96.2563 6.74655L96.2563 14.3412C96.1767 15.4953 96.3793 16.6513 96.8474 17.7145C97.1193 18.0415 97.4644 18.3036 97.8564 18.4809C98.2484 18.6582 98.6768 18.746 99.109 18.7375C99.5411 18.7291 99.9656 18.6246 100.35 18.4321C100.734 18.2395 101.068 17.9641 101.326 17.6267C101.809 16.5023 102.018 15.2844 101.938 14.0683L101.938 12.6254L99.2722 12.6254L99.2722 10.6073L104.583 10.6073L104.583 20.727L102.769 20.727L102.479 18.3774C102.249 19.158 101.755 19.8401 101.076 20.3127C100.398 20.7853 99.5747 21.0207 98.7412 20.9805C97.9576 21.0477 97.1692 20.9212 96.4492 20.6127C95.7293 20.3042 95.1011 19.8237 94.623 19.2159Z" fill="rgb(68,68,68)" fill-rule="nonzero" />
	<path id="Vector" d="M110.675 13.5125L106.136 0.282776L108.862 0.282776L112.078 10.149L115.245 0.282776L118 0.282776L113.491 13.5125L113.491 20.727L110.685 20.727L110.675 13.5125Z" fill="rgb(68,68,68)" fill-rule="nonzero" />
</svg>
