<svg viewBox="0 0 101 18" xmlns="http://www.w3.org/2000/svg" xmlns:xlink="http://www.w3.org/1999/xlink" width="101.000000" height="18.000000" fill="none" customFrame="#000000">
	<rect id="logo text" width="101.000000" height="18.000000" x="0.000000" y="0.000000" />
	<path id="Vector" d="M1.21843 16.4708C0.334911 15.1952 -0.0875384 13.6692 0.0177371 12.1337L0.0177371 5.86633C-0.0937138 4.31952 0.32235 2.78017 1.20127 1.48751C1.99601 0.490295 3.35393 -0.00552459 5.27503 4.64252e-05C7.19613 0.00561744 8.49687 0.442942 9.17726 1.31202C10.0069 2.389 10.4117 3.7206 10.3179 5.0641L10.3179 6.53485L6.76731 6.53485L6.76731 4.93875C6.76252 4.51879 6.72526 4.09978 6.65582 3.68527C6.61289 3.3852 6.47149 3.10671 6.25273 2.8914C6.11769 2.77856 5.96091 2.6931 5.79156 2.64001C5.62221 2.58692 5.44369 2.56727 5.26645 2.58221C5.01191 2.5452 4.75185 2.58551 4.52166 2.69765C4.29147 2.8098 4.10233 2.98833 3.98 3.20895C3.7545 3.79581 3.65525 4.42158 3.68841 5.04739L3.68841 13.0028C3.64928 13.6327 3.7639 14.2628 4.02288 14.8412C4.14662 15.0499 4.33024 15.2188 4.55117 15.3272C4.7721 15.4356 5.02071 15.4787 5.26645 15.4513C5.50792 15.4845 5.75401 15.4427 5.96962 15.3316C6.18523 15.2206 6.35934 15.046 6.46714 14.8329C6.67459 14.2449 6.76483 13.6238 6.733 13.0028L6.733 11.3315L10.2836 11.3315L10.2836 12.7772C10.3881 14.1405 10.0164 15.4982 9.22872 16.6295C8.474 17.5487 7.1704 18 5.31791 18C3.46542 18 2.01602 17.4986 1.21843 16.4708Z" fill="rgb(17,17,17)" fill-rule="nonzero" />
	<path id="Vector" d="M15.1555 0.242386L19.2207 0.242386L22.6513 17.7911L19.2722 17.7911L18.6633 13.9137L15.8159 13.9137L15.1298 17.766L11.6993 17.766L15.1555 0.242386ZM18.2859 11.7075L17.2053 4.65463L16.1332 11.7075L18.2859 11.7075Z" fill="rgb(17,17,17)" fill-rule="nonzero" />
	<path id="Vector" d="M25.2848 2.88305L22.506 2.88305L22.506 0.242386L31.6999 0.242386L31.6999 2.88305L28.9554 2.88305L28.9554 17.766L25.2762 17.766L25.2848 2.88305Z" fill="rgb(17,17,17)" fill-rule="nonzero" />
	<path id="Vector" d="M38.9133 0.242386L45.8859 0.242386L45.8859 2.06411L41.4262 2.06411L41.4262 7.85518L45.0454 7.85518L45.0454 9.58498L41.4262 9.58498L41.4262 16.0111L45.9288 16.0111L45.9288 17.766L38.9133 17.766L38.9133 0.242386Z" fill="rgb(68,68,68)" fill-rule="nonzero" />
	<path id="Vector" d="M47.9532 0.242386L49.6685 0.242386L54.8143 11.883L54.8143 0.242386L56.9069 0.242386L56.9069 17.7911L55.3032 17.7911L50.1574 5.82454L50.1574 17.766L48.0304 17.766L47.9532 0.242386Z" fill="rgb(68,68,68)" fill-rule="nonzero" />
	<path id="Vector" d="M59.6777 0.242386L66.6417 0.242386L66.6417 2.06411L62.182 2.06411L62.182 7.85518L65.8355 7.85518L65.8355 9.58498L62.2163 9.58498L62.2163 16.0111L66.6932 16.0111L66.6932 17.766L59.6777 17.766L59.6777 0.242386Z" fill="rgb(68,68,68)" fill-rule="nonzero" />
	<path id="Vector" d="M68.709 0.242386L72.3282 0.242386C73.7545 0.130556 75.1748 0.518778 76.3333 1.33709C77.191 2.06411 77.6112 3.25073 77.6112 4.89697C77.6112 7.12537 76.8708 8.48749 75.3899 8.98331L77.9628 17.766L75.5272 17.766L73.1687 9.54319L71.2218 9.54319L71.2218 17.766L68.709 17.766L68.709 0.242386ZM72.1395 7.76326C72.9657 7.84115 73.7919 7.61455 74.4551 7.12816C74.7246 6.81737 74.9261 6.45614 75.047 6.06669C75.1679 5.67724 75.2058 5.26779 75.1584 4.86354C75.1756 4.2966 75.0914 3.73106 74.9097 3.19224C74.8359 2.99356 74.722 2.81132 74.5747 2.6563C74.4274 2.50128 74.2497 2.37663 74.052 2.28973C73.4953 2.06717 72.8949 1.96729 72.2939 1.99726L71.1875 1.99726L71.1875 7.79668L72.1395 7.76326Z" fill="rgb(68,68,68)" fill-rule="nonzero" />
	<path id="Vector" d="M80.9909 16.4708C80.1711 15.1225 79.7912 13.5634 79.9017 12L79.9017 6.15045C79.8721 5.02162 80.0167 3.89485 80.3305 2.80784C80.5782 1.99062 81.1046 1.28018 81.8228 0.793919C82.6898 0.284794 83.6935 0.0403107 84.7044 0.091971C85.3583 0.0313764 86.018 0.110661 86.6372 0.324282C87.2564 0.537904 87.8202 0.880707 88.2893 1.32874C89.1122 2.45189 89.501 3.82232 89.3871 5.19781L89.3871 5.84962L87.0286 5.84962L87.0286 5.30644C87.0447 4.65678 86.993 4.0072 86.8742 3.36773C86.7961 2.9579 86.5636 2.59131 86.2224 2.33988C85.7772 2.08387 85.2632 1.96447 84.7473 1.99726C84.1871 1.95056 83.6303 2.11843 83.195 2.46522C82.8393 2.79406 82.6068 3.22945 82.5346 3.70199C82.426 4.39034 82.3772 5.08641 82.3888 5.78276L82.3888 12.2925C82.3207 13.2817 82.4941 14.2725 82.8948 15.1839C83.1275 15.4641 83.4229 15.6888 83.7584 15.8408C84.0939 15.9928 84.4606 16.068 84.8305 16.0608C85.2004 16.0535 85.5637 15.9639 85.8927 15.7989C86.2216 15.6339 86.5075 15.3978 86.7284 15.1086C87.1417 14.1448 87.3208 13.1009 87.2516 12.0585L87.2516 10.8217L84.9703 10.8217L84.9703 9.09194L89.5157 9.09194L89.5157 17.766L87.9634 17.766L87.7147 15.7521C87.5181 16.4212 87.0951 17.0058 86.5143 17.4109C85.9335 17.816 85.2291 18.0177 84.5157 17.9833C83.845 18.0409 83.1702 17.9325 82.554 17.668C81.9377 17.4036 81.4001 16.9918 80.9909 16.4708Z" fill="rgb(68,68,68)" fill-rule="nonzero" />
	<path id="Vector" d="M94.7307 11.5822L90.8456 0.242386L93.1783 0.242386L95.9313 8.69919L98.6415 0.242386L101 0.242386L97.1406 11.5822L97.1406 17.766L94.7392 17.766L94.7307 11.5822Z" fill="rgb(68,68,68)" fill-rule="nonzero" />
</svg>
