<svg viewBox="0 0 101 18" xmlns="http://www.w3.org/2000/svg" xmlns:xlink="http://www.w3.org/1999/xlink" width="101.000000" height="18.000000" fill="none">
	<rect id="logo 2" width="101.000000" height="18.000000" x="0.000000" y="0.000000" fill="rgb(255,255,255)" fill-opacity="0" />
	<path id="Vector" d="M1.26449 16.5385C0.36955 15.2762 -0.0747041 13.7627 1.02073e-05 12.2308L1.02073e-05 5.84615C-0.108365 4.29774 0.308071 2.75746 1.18546 1.46154C2.05478 0.461538 3.39829 0 5.37403 0C7.34978 0 8.61425 0.461539 9.40455 1.30769C10.2626 2.37941 10.6846 3.72136 10.59 5.07692L10.59 6.61539L6.71754 6.61539L6.71754 4.84615C6.74881 4.32289 6.66808 3.799 6.48045 3.30769C6.38016 3.10938 6.2212 2.9448 6.02403 2.83513C5.82686 2.72547 5.60049 2.67572 5.37403 2.69231C4.82082 2.69231 4.42568 2.84615 4.26762 3.23077C4.08883 3.77733 4.00862 4.34988 4.03053 4.92308L4.03053 13.1538C3.98879 13.71 4.0978 14.267 4.34665 14.7692C4.5047 15.1538 4.89985 15.3077 5.45306 15.3077C6.00627 15.3077 6.32239 15.1538 6.48045 14.7692C6.66013 14.2494 6.74049 13.7019 6.71754 13.1538L6.71754 11.3077L10.59 11.3077L10.59 12.8462C10.6704 14.2238 10.2508 15.5852 9.40455 16.6923C8.61425 17.6154 7.27075 18.0769 5.37403 18.0769C3.47732 18 2.05478 17.5385 1.26449 16.5385Z" fill="rgb(17,17,17)" fill-rule="nonzero" />
	<path id="Vector" d="M15.2527 0.23077L19.7574 0.23077L23.0767 17.7692L19.4413 17.7692L18.8091 14.0769L16.2011 14.0769L15.5689 17.7692L11.8545 17.7692L15.2527 0.23077ZM18.493 11.7692L17.5446 4.92308L16.5963 11.7692L18.493 11.7692Z" fill="rgb(17,17,17)" fill-rule="nonzero" />
	<path id="Vector" d="M25.8427 3.15385L23.1557 3.15385L23.1557 0.23077L32.5602 0.23077L32.5602 3.07692L29.8732 3.07692L29.8732 17.7692L25.8427 17.7692L25.8427 3.15385Z" fill="rgb(17,17,17)" fill-rule="nonzero" />
	<path id="Vector" d="M39.752 0.23077L46.7066 0.23077L46.7066 2.07692L42.2019 2.07692L42.2019 7.84615L45.8372 7.84615L45.8372 9.61539L42.2019 9.61539L42.2019 16.0769L46.7066 16.0769L46.7066 17.8462L39.6729 17.8462L39.6729 0.23077L39.752 0.23077Z" fill="rgb(17,17,17)" fill-rule="nonzero" />
	<path id="Vector" d="M48.7613 0.23077L50.5 0.23077L55.6369 11.8462L55.6369 0.23077L57.6917 0.23077L57.6917 17.7692L56.1111 17.7692L50.8951 5.76923L50.8951 17.7692L48.7613 17.7692L48.7613 0.23077Z" fill="rgb(17,17,17)" fill-rule="nonzero" />
	<path id="Vector" d="M60.0626 0.23077L67.0172 0.23077L67.0172 2.07692L62.5125 2.07692L62.5125 7.84615L66.1479 7.84615L66.1479 9.61539L62.5125 9.61539L62.5125 16.0769L67.0172 16.0769L67.0172 17.8462L60.0626 17.8462L60.0626 0.23077Z" fill="rgb(17,17,17)" fill-rule="nonzero" />
	<path id="Vector" d="M69.072 0.230769L72.7074 0.230769C74.1375 0.134616 75.5587 0.514352 76.7379 1.30769C77.6072 2 78.0024 3.23077 78.0024 4.84615C78.0024 7.07692 77.2911 8.46154 75.7895 8.92308L78.3185 17.6923L75.8686 17.6923L73.4977 9.46154L71.5219 9.46154L71.5219 17.6923L68.993 17.6923L68.993 0.230769L69.072 0.230769ZM72.5493 7.76923C73.364 7.83458 74.1761 7.61652 74.8412 7.15384C75.3154 6.76923 75.5524 6 75.5524 4.84615C75.5743 4.27296 75.4941 3.7004 75.3154 3.15385C75.1375 2.76165 74.832 2.4373 74.446 2.23077C73.9017 1.98934 73.3042 1.8836 72.7074 1.92308L71.601 1.92308L71.601 7.69231L72.5493 7.69231L72.5493 7.76923Z" fill="rgb(17,17,17)" fill-rule="nonzero" />
	<path id="Vector" d="M81.1635 16.4615C80.342 15.1166 79.9564 13.5617 80.0571 12L80.0571 6.15384C80.0376 5.03911 80.1705 3.9268 80.4523 2.84615C80.7167 2.03863 81.2437 1.33668 81.9538 0.846152C82.8362 0.337748 83.8542 0.0967294 84.8779 0.153844C86.5376 0.153844 87.723 0.53846 88.4343 1.38461C89.2525 2.50191 89.6438 3.86237 89.5407 5.23077L89.5407 5.84615L87.1698 5.84615L87.1698 5.30769C87.1734 4.66346 87.1205 4.0201 87.0117 3.38461C86.9451 2.98303 86.7178 2.62348 86.3795 2.38461C85.9353 2.10082 85.4081 1.96579 84.8779 2C84.3113 1.96466 83.7504 2.12843 83.2973 2.46154C83.1114 2.61401 82.9595 2.80181 82.8508 3.01344C82.7421 3.22507 82.6789 3.45608 82.6651 3.69231C82.5609 4.37999 82.5081 5.07411 82.507 5.76923L82.507 12.3077C82.4488 13.3038 82.6105 14.3006 82.9812 15.2308C83.2973 15.8462 83.9296 16.0769 84.8779 16.0769C85.2524 16.1223 85.6323 16.0589 85.9698 15.8947C86.3073 15.7304 86.5873 15.4727 86.7746 15.1538C87.1922 14.1811 87.3812 13.1299 87.3279 12.0769L87.3279 10.8462L85.036 10.8462L85.036 9.07692L89.6197 9.07692L89.6197 17.7692L88.0391 17.7692L87.802 15.7692C87.5948 16.4395 87.1634 17.0231 86.5763 17.4273C85.9892 17.8315 85.2801 18.0331 84.5618 18C83.9088 18.0374 83.2565 17.9164 82.6634 17.6479C82.0702 17.3794 81.5549 16.9717 81.1635 16.4615Z" fill="rgb(17,17,17)" fill-rule="nonzero" />
	<path id="Vector" d="M94.6776 11.6154L90.8052 0.30769L93.176 0.30769L95.9421 8.76923L98.6291 0.30769L101 0.30769L97.1275 11.6154L97.1275 17.7692L94.7566 17.7692L94.7566 11.6154L94.6776 11.6154Z" fill="rgb(17,17,17)" fill-rule="nonzero" />
</svg>
